<svg xmlns="http://www.w3.org/2000/svg" viewBox="0 0 512 512" role="img" aria-labelledby="title desc">
  <title id="title">BISU Clearance App Icon</title>
  <desc id="desc">Rounded square icon with BISU initials for the online clearance app.</desc>
  <defs>
    <linearGradient id="bg" x1="0" y1="0" x2="1" y2="1">
      <stop offset="0%" stop-color="#412886" />
      <stop offset="100%" stop-color="#6b4bb8" />
    </linearGradient>
  </defs>
  <rect x="24" y="24" width="464" height="464" rx="108" fill="url(#bg)" />
  <circle cx="256" cy="208" r="108" fill="#ffffff" opacity="0.14" />
  <path d="M167 188h178c16.6 0 30 13.4 30 30v96c0 16.6-13.4 30-30 30H167c-16.6 0-30-13.4-30-30v-96c0-16.6 13.4-30 30-30z" fill="#ffffff" opacity="0.92" />
  <path d="M184 245c0-22.6 18.4-41 41-41h62c22.6 0 41 18.4 41 41v18c0 22.6-18.4 41-41 41h-62c-22.6 0-41-18.4-41-41v-18zm41-19c-10.5 0-19 8.5-19 19v18c0 10.5 8.5 19 19 19h62c10.5 0 19-8.5 19-19v-18c0-10.5-8.5-19-19-19h-62z" fill="#412886" />
  <text x="256" y="392" text-anchor="middle" fill="#ffffff" font-size="66" font-family="Segoe UI, Arial, sans-serif" font-weight="700" letter-spacing="6">BISU</text>
</svg>
